<mxfile host="app.diagrams.net" modified="2024-02-27T05:56:05.214Z" agent="Mozilla/5.0 (Windows NT 10.0; Win64; x64) AppleWebKit/537.36 (KHTML, like Gecko) Chrome/121.0.0.0 Safari/537.36" etag="svgh-jg90beCq2ESc7_s" version="23.1.7" type="github">
  <diagram name="Page-1" id="QKl11aqFRnratIF972Ye">
    <mxGraphModel dx="1434" dy="746" grid="1" gridSize="10" guides="1" tooltips="1" connect="1" arrows="1" fold="1" page="1" pageScale="1" pageWidth="850" pageHeight="1100" math="0" shadow="0">
      <root>
        <mxCell id="0" />
        <mxCell id="1" parent="0" />
        <mxCell id="nfiHLe1KQ1GddXlXC8Ru-4" value="" style="edgeStyle=orthogonalEdgeStyle;rounded=0;orthogonalLoop=1;jettySize=auto;html=1;" edge="1" parent="1" source="nfiHLe1KQ1GddXlXC8Ru-1" target="nfiHLe1KQ1GddXlXC8Ru-3">
          <mxGeometry relative="1" as="geometry" />
        </mxCell>
        <mxCell id="nfiHLe1KQ1GddXlXC8Ru-1" value="User Registers" style="rounded=1;whiteSpace=wrap;html=1;" vertex="1" parent="1">
          <mxGeometry x="40" y="160" width="120" height="60" as="geometry" />
        </mxCell>
        <mxCell id="nfiHLe1KQ1GddXlXC8Ru-2" value="Start" style="strokeWidth=2;html=1;shape=mxgraph.flowchart.start_1;whiteSpace=wrap;" vertex="1" parent="1">
          <mxGeometry x="40" y="40" width="100" height="60" as="geometry" />
        </mxCell>
        <mxCell id="nfiHLe1KQ1GddXlXC8Ru-8" style="edgeStyle=orthogonalEdgeStyle;rounded=0;orthogonalLoop=1;jettySize=auto;html=1;exitX=0.5;exitY=1;exitDx=0;exitDy=0;entryX=0;entryY=0;entryDx=0;entryDy=0;" edge="1" parent="1" source="nfiHLe1KQ1GddXlXC8Ru-3" target="nfiHLe1KQ1GddXlXC8Ru-7">
          <mxGeometry relative="1" as="geometry" />
        </mxCell>
        <mxCell id="nfiHLe1KQ1GddXlXC8Ru-3" value="User Go for Checkout" style="rounded=1;whiteSpace=wrap;html=1;" vertex="1" parent="1">
          <mxGeometry x="40" y="300" width="120" height="60" as="geometry" />
        </mxCell>
        <mxCell id="nfiHLe1KQ1GddXlXC8Ru-7" value="" style="rounded=1;whiteSpace=wrap;html=1;absoluteArcSize=1;arcSize=14;strokeWidth=2;dashed=1;fillColor=none;" vertex="1" parent="1">
          <mxGeometry x="40" y="440" width="760" height="500" as="geometry" />
        </mxCell>
        <mxCell id="nfiHLe1KQ1GddXlXC8Ru-10" value="Already&lt;br&gt;Contact" style="strokeWidth=2;html=1;shape=mxgraph.flowchart.decision;whiteSpace=wrap;" vertex="1" parent="1">
          <mxGeometry x="80" y="560" width="100" height="100" as="geometry" />
        </mxCell>
        <mxCell id="nfiHLe1KQ1GddXlXC8Ru-12" value="" style="rounded=1;whiteSpace=wrap;html=1;absoluteArcSize=1;arcSize=14;strokeWidth=2;dashed=1;fillColor=none;" vertex="1" parent="1">
          <mxGeometry x="40" y="1040" width="760" height="500" as="geometry" />
        </mxCell>
        <mxCell id="nfiHLe1KQ1GddXlXC8Ru-14" value="Out" style="strokeWidth=2;html=1;shape=mxgraph.flowchart.terminator;whiteSpace=wrap;" vertex="1" parent="1">
          <mxGeometry x="370" y="860" width="100" height="60" as="geometry" />
        </mxCell>
        <mxCell id="nfiHLe1KQ1GddXlXC8Ru-15" style="edgeStyle=orthogonalEdgeStyle;rounded=0;orthogonalLoop=1;jettySize=auto;html=1;exitX=0.5;exitY=1;exitDx=0;exitDy=0;exitPerimeter=0;entryX=0;entryY=0.5;entryDx=0;entryDy=0;entryPerimeter=0;" edge="1" parent="1" source="nfiHLe1KQ1GddXlXC8Ru-10" target="nfiHLe1KQ1GddXlXC8Ru-14">
          <mxGeometry relative="1" as="geometry" />
        </mxCell>
        <mxCell id="nfiHLe1KQ1GddXlXC8Ru-21" value="In" style="strokeWidth=2;html=1;shape=mxgraph.flowchart.start_1;whiteSpace=wrap;" vertex="1" parent="1">
          <mxGeometry x="80" y="480" width="100" height="60" as="geometry" />
        </mxCell>
        <mxCell id="nfiHLe1KQ1GddXlXC8Ru-22" style="edgeStyle=orthogonalEdgeStyle;rounded=0;orthogonalLoop=1;jettySize=auto;html=1;exitX=0.5;exitY=1;exitDx=0;exitDy=0;exitPerimeter=0;entryX=0.5;entryY=0;entryDx=0;entryDy=0;entryPerimeter=0;" edge="1" parent="1" source="nfiHLe1KQ1GddXlXC8Ru-21" target="nfiHLe1KQ1GddXlXC8Ru-10">
          <mxGeometry relative="1" as="geometry" />
        </mxCell>
      </root>
    </mxGraphModel>
  </diagram>
</mxfile>
